<svg width="684" height="513" viewBox="0 0 684 513" fill="none" xmlns="http://www.w3.org/2000/svg">
<path fill-rule="evenodd" clip-rule="evenodd" d="M403.889 132H279.235C273.833 132 269.453 136.391 269.453 141.809V263.969C269.453 267.874 271.824 271.386 275.44 272.837L338.234 298.959C340.363 299.854 342.761 299.854 344.89 298.959L407.684 272.837C411.3 271.386 413.671 267.874 413.671 263.969V141.809C413.671 136.391 409.292 132 403.889 132ZM341.543 286.088L313.703 274.844H369.303L341.543 286.088ZM309.438 244.513C307.383 246.212 304.523 247.521 300.996 247.521C294.941 247.521 290.414 243.344 290.414 237.44V237.384C290.414 231.703 294.858 227.248 300.885 227.248C304.301 227.248 306.717 228.306 308.772 230.088L305.606 233.903C304.217 232.734 302.829 232.065 300.912 232.065C298.107 232.065 295.941 234.432 295.941 237.412V237.468C295.941 240.615 298.135 242.87 301.218 242.87C302.523 242.87 303.523 242.592 304.328 242.063V239.696H300.496V235.741H309.438V244.513ZM316.536 247.131H310.87L319.146 227.498H324.34L332.616 247.131H326.839L325.423 243.65H317.924L316.536 247.131ZM321.701 233.903L319.507 239.445H323.868L321.701 233.903ZM334.502 247.131H339.779V235.992L344.723 243.566H344.834L349.805 235.936V247.131H355.165V227.638H349.472L344.834 235.184L340.196 227.638H334.502V247.131ZM374.388 247.131H358.613V227.638H374.249V232.232H363.946V235.184H373.277V239.445H363.946V242.536H374.388V247.131ZM384.775 247.465C389.496 247.465 392.634 245.098 392.634 241.116V241.06C392.634 237.412 389.857 235.964 385.386 234.989C382.692 234.377 382.025 233.987 382.025 233.096V233.04C382.025 232.344 382.664 231.787 383.969 231.787C385.691 231.787 387.635 232.455 389.413 233.708L392.107 229.893C389.996 228.195 387.413 227.303 384.108 227.303C379.442 227.303 376.582 229.921 376.582 233.541V233.597C376.582 237.607 379.776 238.777 383.914 239.723C386.552 240.336 387.191 240.782 387.191 241.589V241.645C387.191 242.48 386.413 242.982 384.969 242.982C382.719 242.982 380.581 242.174 378.665 240.642L375.665 244.235C378.054 246.379 381.331 247.465 384.775 247.465ZM290.835 220.29V156.271H312.543V165.143H300.594V183.251H312.087V192.122H300.594V211.419H312.725V220.29H290.835ZM332.779 197.06H327.216V220.29H317.456V156.271H332.779C340.714 156.271 344.636 160.204 344.636 168.161V185.171C344.636 193.128 340.714 197.06 332.779 197.06ZM334.877 184.714V168.618C334.877 166.057 333.691 164.868 331.229 164.868H327.216V188.464H331.229C333.691 188.464 334.877 187.275 334.877 184.714ZM349.068 156.271H358.827V220.29H349.068V156.271ZM383.075 208.492V194.042H392.651V208.95C392.651 216.906 388.729 220.839 380.794 220.839H375.96C368.025 220.839 364.103 216.906 364.103 208.95V167.612C364.103 159.655 368.025 155.723 375.96 155.723H380.703C388.638 155.723 392.469 159.564 392.469 167.52V180.599H382.892V168.069C382.892 165.508 381.706 164.32 379.244 164.32H377.602C375.048 164.32 373.863 165.508 373.863 168.069V208.492C373.863 211.053 375.048 212.242 377.602 212.242H379.426C381.889 212.242 383.075 211.053 383.075 208.492Z" fill="white"/>
<path d="M311.348 335.616V314.213C311.348 310.094 309.349 308.058 305.304 308.058H302.654C298.609 308.058 296.61 310.094 296.61 314.213V335.616C296.61 339.735 298.609 341.771 302.654 341.771H305.304C309.349 341.771 311.348 339.735 311.348 335.616ZM306.373 314.45V335.379C306.373 336.705 305.769 337.32 304.514 337.32H303.491C302.189 337.32 301.585 336.705 301.585 335.379V314.45C301.585 313.124 302.189 312.509 303.491 312.509H304.514C305.769 312.509 306.373 313.124 306.373 314.45Z" fill="white"/>
<path d="M330.034 341.487V308.342H325.571V323.257L325.618 328.797L320.969 308.342H315.158V341.487H319.621V325.009L319.574 319.185L324.642 341.487H330.034Z" fill="white"/>
<path d="M333.93 308.342V341.487H344.39V336.894H338.904V308.342H333.93Z" fill="white"/>
<path d="M352.638 308.342H347.664V341.487H352.638V308.342Z" fill="white"/>
<path d="M371.46 341.487V308.342H366.997V323.257L367.043 328.797L362.394 308.342H356.583V341.487H361.046V325.009L360.999 319.185L366.067 341.487H371.46Z" fill="white"/>
<path d="M375.355 308.342V341.487H386.513V336.894H380.329V326.903H386.187V322.31H380.329V312.935H386.42V308.342H375.355Z" fill="white"/>
<path d="M291.065 365.236L286.058 361.599C285.131 360.955 284.668 360.31 284.668 358.975V355.384C284.668 354.141 285.27 353.543 286.522 353.543H287.124C288.376 353.543 288.979 354.141 288.979 355.384V361.047H293.846V355.2C293.846 351.241 291.853 349.262 287.866 349.262H285.78C281.747 349.262 279.754 351.241 279.754 355.246V359.666C279.754 362.151 280.403 363.671 282.628 365.236L287.634 368.873C288.561 369.563 289.025 370.162 289.025 371.497V375.916C289.025 377.159 288.422 377.757 287.124 377.757H286.475C285.177 377.757 284.575 377.159 284.575 375.916V369.287H279.754V376.1C279.754 380.059 281.701 382.039 285.734 382.039H287.912C291.945 382.039 293.939 380.059 293.939 376.054V370.806C293.939 368.182 293.243 366.801 291.065 365.236Z" fill="white"/>
<path d="M297.57 349.538V381.762H308.695V377.297H302.53V367.584H308.37V363.118H302.53V354.003H308.602V349.538H297.57Z" fill="white"/>
<path d="M323.615 366.571C325.423 365.834 326.443 364.453 326.443 361.599V355.522C326.443 351.517 324.45 349.538 320.417 349.538H312.258V381.762H317.218V368.827H319.443C320.88 368.827 321.529 369.471 321.529 370.898V381.762H326.489V370.806C326.489 368.366 325.655 367.123 323.615 366.571ZM321.483 355.753V362.566C321.483 363.901 320.834 364.545 319.443 364.545H317.218V353.911H319.629C320.88 353.911 321.483 354.51 321.483 355.753Z" fill="white"/>
<path d="M339.855 381.808L344.676 349.538H339.948L336.934 373.568L334.014 349.538H329.008L333.782 381.808H339.855Z" fill="white"/>
<path d="M352.618 349.538H347.658V381.762H352.618V349.538Z" fill="white"/>
<path d="M366.1 368.55V375.824C366.1 377.113 365.498 377.711 364.246 377.711H363.319C362.021 377.711 361.418 377.113 361.418 375.824V355.476C361.418 354.187 362.021 353.589 363.319 353.589H364.153C365.405 353.589 366.008 354.187 366.008 355.476V361.783H370.875V355.2C370.875 351.195 368.928 349.262 364.895 349.262H362.485C358.452 349.262 356.458 351.241 356.458 355.246V376.054C356.458 380.059 358.452 382.039 362.485 382.039H364.941C368.974 382.039 370.968 380.059 370.968 376.054V368.55H366.1Z" fill="white"/>
<path d="M374.68 349.538V381.762H385.806V377.297H379.64V367.584H385.481V363.118H379.64V354.003H385.713V349.538H374.68Z" fill="white"/>
<path d="M400.495 365.236L395.489 361.599C394.562 360.955 394.098 360.31 394.098 358.975V355.384C394.098 354.141 394.701 353.543 395.953 353.543H396.555C397.807 353.543 398.409 354.141 398.409 355.384V361.047H403.277V355.2C403.277 351.241 401.283 349.262 397.297 349.262H395.211C391.178 349.262 389.185 351.241 389.185 355.246V359.666C389.185 362.151 389.834 363.671 392.059 365.236L397.065 368.873C397.992 369.563 398.456 370.162 398.456 371.497V375.916C398.456 377.159 397.853 377.757 396.555 377.757H395.906C394.608 377.757 394.006 377.159 394.006 375.916V369.287H389.185V376.1C389.185 380.059 391.132 382.039 395.165 382.039H397.343C401.376 382.039 403.369 380.059 403.369 376.054V370.806C403.369 368.182 402.674 366.801 400.495 365.236Z" fill="white"/>
</svg>
