<svg width="684" height="513" viewBox="0 0 684 513" fill="none" xmlns="http://www.w3.org/2000/svg">
<g clip-path="url(#clip0_113_28)">
<path fill-rule="evenodd" clip-rule="evenodd" d="M285.076 381.396H261.188V359.472H284.7V364.327H267.579V368.061H283.787V372.64H267.589V376.416H285.076V381.396Z" fill="white"/>
<path fill-rule="evenodd" clip-rule="evenodd" d="M422.517 381.396H399.005V359.819H422.151V364.575H405.306V368.246H421.257V372.75H405.306V376.469H422.517V381.396V381.396Z" fill="white"/>
<path fill-rule="evenodd" clip-rule="evenodd" d="M317.468 381.396H307.804L295.078 364.998H294.954V381.396H288.629V359.472H298.449L311.019 375.888H311.143V359.472H317.482V381.396H317.468Z" fill="white"/>
<path fill-rule="evenodd" clip-rule="evenodd" d="M394.063 381.396H384.399L371.673 364.998H371.549V381.396H365.196V359.472H375.016L387.586 375.888H387.709V359.472H394.063V381.396Z" fill="white"/>
<path fill-rule="evenodd" clip-rule="evenodd" d="M336.143 381.686C334.117 381.686 332.372 381.633 330.912 381.533C329.642 381.467 328.382 381.281 327.15 380.972C326.247 380.749 325.395 380.349 324.644 379.798C323.988 379.284 323.469 378.613 323.141 377.848C322.746 376.92 322.494 375.936 322.394 374.933C322.261 373.587 322.199 372.231 322.209 370.881V370.239C322.199 368.874 322.266 367.514 322.404 366.158C322.499 365.15 322.746 364.161 323.136 363.229C323.469 362.463 323.988 361.797 324.644 361.284C325.395 360.737 326.251 360.347 327.155 360.133C328.387 359.828 329.642 359.638 330.907 359.576C332.381 359.481 334.127 359.434 336.139 359.434H337.09C338.778 359.434 340.252 359.472 341.522 359.543C342.621 359.595 343.71 359.733 344.789 359.942C345.579 360.09 346.34 360.356 347.048 360.732C347.619 361.036 348.109 361.469 348.475 362.002C348.836 362.563 349.084 363.191 349.193 363.852C349.336 364.684 349.402 365.526 349.393 366.367V367.209H343.21V366.943C343.22 366.515 343.144 366.087 342.977 365.687C342.782 365.316 342.459 365.026 342.069 364.874C341.46 364.636 340.818 364.494 340.167 364.446C339.349 364.365 338.269 364.327 336.933 364.322H336.391C335.178 364.322 334.141 364.342 333.28 364.384C332.557 364.408 331.839 364.498 331.135 364.655C330.646 364.76 330.184 364.965 329.78 365.259C329.433 365.535 329.171 365.901 329.029 366.32C328.848 366.857 328.743 367.418 328.715 367.984C328.667 368.645 328.643 369.44 328.643 370.362V370.752C328.643 371.661 328.667 372.436 328.715 373.083C328.743 373.639 328.853 374.186 329.029 374.714C329.171 375.128 329.433 375.494 329.78 375.765C330.184 376.06 330.646 376.264 331.135 376.369C331.839 376.526 332.557 376.616 333.28 376.64C334.141 376.683 335.178 376.706 336.391 376.702H336.933C337.922 376.702 338.773 376.702 339.487 376.649C340.2 376.597 340.804 376.554 341.294 376.478C341.698 376.421 342.088 376.312 342.464 376.15C342.73 376.031 342.963 375.846 343.144 375.617C343.305 375.399 343.415 375.142 343.462 374.871C343.515 374.538 343.538 374.2 343.538 373.862V373.254H335.126V369.021H349.645V373.891C349.654 374.818 349.588 375.746 349.44 376.664C349.321 377.391 349.069 378.09 348.698 378.723C348.342 379.303 347.852 379.793 347.272 380.15C346.558 380.573 345.783 380.882 344.975 381.058C343.881 381.305 342.768 381.462 341.646 381.533C340.352 381.629 338.849 381.676 337.128 381.676L336.143 381.686V381.686Z" fill="white"/>
<path fill-rule="evenodd" clip-rule="evenodd" d="M360.535 381.448H354.11V359.686H360.535V381.448Z" fill="white"/>
<path fill-rule="evenodd" clip-rule="evenodd" d="M211.928 347.986C208.822 347.986 206.097 347.901 203.757 347.734C201.717 347.615 199.691 347.33 197.699 346.883C196.215 346.564 194.793 346.013 193.48 345.247C192.405 344.6 191.492 343.715 190.812 342.66C190.108 341.528 189.633 340.272 189.409 338.96C189.114 337.305 188.981 335.626 189 333.947V309.217H200.271V330.295C200.271 331.598 200.319 332.715 200.409 333.652C200.476 334.47 200.661 335.269 200.966 336.03C201.223 336.658 201.641 337.21 202.178 337.628C202.806 338.08 203.52 338.403 204.276 338.579C205.327 338.846 206.402 339.003 207.486 339.055C208.76 339.126 210.273 339.164 212.037 339.164H212.988C214.748 339.164 216.265 339.121 217.535 339.041C218.619 338.988 219.694 338.836 220.75 338.589C221.506 338.418 222.219 338.094 222.847 337.638C223.38 337.214 223.793 336.668 224.055 336.04C224.364 335.279 224.554 334.48 224.616 333.662C224.706 332.711 224.749 331.603 224.749 330.333V309.213H236.025V333.942C236.039 335.616 235.916 337.291 235.645 338.941C235.435 340.258 234.974 341.518 234.28 342.655C233.609 343.711 232.706 344.595 231.64 345.242C230.332 346.008 228.91 346.559 227.431 346.878C225.429 347.325 223.394 347.61 221.349 347.729C218.985 347.896 216.236 347.977 213.098 347.981H211.928V347.986Z" fill="white"/>
<path fill-rule="evenodd" clip-rule="evenodd" d="M293.983 347.516H277.129L254.939 318.839H254.72V347.516H243.667V309.161H260.788L282.707 337.866H282.921V309.161H293.974V347.497L293.983 347.516Z" fill="white"/>
<path fill-rule="evenodd" clip-rule="evenodd" d="M327.212 328.526C329.157 328.526 330.703 328.469 331.858 328.35C332.776 328.298 333.675 328.041 334.483 327.604C335.064 327.256 335.482 326.695 335.653 326.039C335.858 325.169 335.953 324.275 335.929 323.38V322.719C335.948 321.835 335.858 320.955 335.653 320.094C335.487 319.443 335.059 318.882 334.469 318.553C333.651 318.13 332.752 317.888 331.83 317.835C330.674 317.716 329.138 317.659 327.212 317.659H313.164V328.526H327.212V328.526ZM347.281 347.516H336.143V344.406C336.153 343.44 336.105 342.475 336.01 341.514C335.943 340.801 335.749 340.106 335.435 339.464C335.154 338.917 334.731 338.451 334.212 338.118C333.57 337.733 332.867 337.467 332.129 337.334C331.078 337.125 330.013 337.001 328.943 336.963C327.673 336.896 326.17 336.863 324.435 336.863H313.164V347.516H301.997V309.161H331.735C334.317 309.118 336.895 309.313 339.439 309.741C341.156 310.003 342.787 310.668 344.195 311.681C345.36 312.599 346.206 313.859 346.606 315.286C347.091 317.093 347.314 318.962 347.272 320.831V322.177C347.286 323.504 347.172 324.826 346.92 326.129C346.72 327.161 346.33 328.15 345.774 329.045C345.25 329.858 344.551 330.547 343.733 331.066C342.782 331.641 341.745 332.055 340.656 332.278V332.497C341.784 332.664 342.892 332.944 343.962 333.339C344.77 333.634 345.479 334.162 345.992 334.851C346.53 335.636 346.872 336.54 347.001 337.481C347.2 338.856 347.291 340.244 347.272 341.633V347.497L347.281 347.516V347.516Z" fill="white"/>
<path fill-rule="evenodd" clip-rule="evenodd" d="M396.26 347.516H354.6V309.161H395.604V317.64H365.762V324.16H394.025V332.169H365.762V338.775H396.26V347.516V347.516Z" fill="white"/>
<path fill-rule="evenodd" clip-rule="evenodd" d="M433.925 332.658L426.112 317.274H425.836L418.079 332.658H433.925ZM453.652 347.544H441.497L437.982 340.662H414.075L410.618 347.544H398.552L419.14 309.213H432.974L453.652 347.544V347.544Z" fill="white"/>
<path fill-rule="evenodd" clip-rule="evenodd" d="M494.709 347.544H457.785V309.213H469.056V338.646H494.709V347.544V347.544Z" fill="white"/>
<path fill-rule="evenodd" clip-rule="evenodd" d="M387.938 220.704C386.602 227.153 380.653 243.693 361.691 252.653L354.082 244.093L341.242 257.009C326.423 256.809 312.546 249.695 303.738 237.772C305.103 238.196 306.515 238.462 307.942 238.562C310.044 238.6 312.322 237.829 312.322 234.282V199.446C312.432 196.279 309.959 193.625 306.791 193.511C306.221 193.492 305.655 193.553 305.103 193.706C299.158 195.066 294.403 209.908 294.403 209.908C294.269 196.036 300.247 182.806 310.743 173.736C319.598 166.232 328.249 163.635 334.822 162.617C328.33 166.317 324.678 172.357 324.678 177.427C324.678 185.554 329.585 184.594 331.041 183.395V230.439C331.288 231.029 331.607 231.59 331.992 232.099C333.309 233.925 335.435 234.995 337.685 234.971C342.602 234.971 348.979 229.359 348.979 229.359V191.266C348.979 187.39 346.059 182.706 343.135 181.108C343.135 181.108 348.547 180.157 352.732 183.348C353.516 182.387 354.353 181.469 355.233 180.594C364.963 171.035 374.147 168.324 381.794 166.964C381.794 166.964 367.874 177.902 367.874 192.55C367.874 203.455 368.154 230.044 368.154 230.044C373.333 235.019 381.004 227.838 387.938 220.704V220.704Z" fill="white"/>
<path fill-rule="evenodd" clip-rule="evenodd" d="M341.855 132C299.024 132 264.303 166.726 264.308 209.557C264.308 252.387 299.034 287.108 341.864 287.104C384.694 287.104 419.416 252.377 419.411 209.547C419.411 166.717 384.694 132 341.864 132C341.864 132 341.859 132 341.855 132ZM341.855 283.998C300.737 283.998 267.404 250.67 267.399 209.552C267.399 168.434 300.727 135.101 341.845 135.096C382.963 135.096 416.296 168.424 416.301 209.542C416.301 250.665 382.973 283.993 341.855 283.998V283.998Z" fill="white"/>
</g>
<defs>
<clipPath id="clip0_113_28">
<rect width="305.708" height="249.686" fill="white" transform="translate(189 132)"/>
</clipPath>
</defs>
</svg>
